<svg width="1920" height="100" viewBox="0 0 1920 100" fill="none" xmlns="http://www.w3.org/2000/svg">
<path opacity="0.8" fill-rule="evenodd" clip-rule="evenodd" d="M0 -19L1920 -19V83H1639.15H283.915H0V-19Z" fill="url(#paint0_radial_6_18114)"/>
<path fill-rule="evenodd" clip-rule="evenodd" d="M1368.6 92.4951L1408.6 60.2474L1368.6 13.9998H551.5L511.5 60.2474L551.5 92.4951H1368.6Z" fill="url(#paint1_linear_6_18114)" fill-opacity="0.3" stroke="url(#paint2_linear_6_18114)" stroke-width="2"/>
<path fill-rule="evenodd" clip-rule="evenodd" d="M1261.6 99.4951L1301.6 60.2705L1261.6 20.9998H659.5L619.5 60.2474L659.5 99.4951H1261.6Z" fill="url(#paint3_linear_6_18114)" fill-opacity="0.35"/>
<path d="M702.974 44.93L703.434 42.446H697.316L697.914 38.214H717.97L717.372 42.446H711.76L711.392 44.93H717.372L713.922 69.586H693.452L696.902 44.93H702.974ZM727.722 49.944L728.78 42.492H719.718L720.316 38.122H735.772L733.518 54.084H724.364L722.846 64.894H730.666L732.69 63.33L731.862 69.54H715.624L718.384 49.944H727.722ZM699.708 59.604H710.426L710.748 57.396H706.148L707.344 48.748H705.964L704.216 57.81H700.536L702.238 48.748H701.272L699.708 59.604ZM709.598 65.722L709.92 63.238H699.202L698.88 65.722H709.598ZM710.84 48.748L710.012 54.682H711.162L711.99 48.748H710.84ZM706.7 44.93H707.896L708.264 42.446H707.16L706.7 44.93ZM760.516 44.332L755.686 55.51L757.158 66.09H753.11L752.604 61.904L751.04 66.136H747.13L746.532 70.322H739.448L743.726 39.87L742.392 38.122H779.008L774.868 67.7C774.745 68.4667 774.362 69.1107 773.718 69.632C773.074 70.1227 772.384 70.368 771.648 70.368H763.644L768.06 66.182V66.09H763.92L763.414 61.95L761.804 66.136H757.158L762.034 55.188L760.562 44.332H764.932L765.3 48.84L766.772 44.332H771.004L766.588 55.418L768.106 65.86L771.372 42.492H750.442L750.166 44.332H754.306L754.536 48.84L756.008 44.332H760.516ZM747.36 64.296L751.316 55.188L750.12 44.608L747.36 64.296ZM802.878 64.112L796.99 59.098L797.312 56.89H804.764L808.674 60.34L813.32 57.304L813.504 55.97H797.45L798.048 51.692H821.324L820.174 60.018L813.228 64.296L820.312 70.414H810.284L807.34 67.93L803.246 70.414H793.264L802.878 64.112ZM812.86 50.496L813.964 42.492H807.662L805.96 50.496H798.324L800.578 39.824L799.152 38.168H821.738L820.68 45.896H821.508L823.026 44.148L822.152 50.496H812.86ZM784.662 69.586L787.376 50.404H784.662L785.26 46.034H795.656L793.264 63.238L796.668 62.318L796.024 66.872L784.662 69.586ZM794.644 38.168L795.978 44.286H788.94L787.606 38.168H794.644ZM865.849 55.188L863.825 69.632H828.819L830.843 55.188H865.849ZM852.095 53.9L848.737 52.566L845.011 53.9H830.199L830.797 49.53H839.859L840.457 49.346L836.593 47.782H830.153L836.961 38.398L835.995 37.294H846.483L845.195 39.042H868.103L867.137 46.034L857.891 49.346L858.443 49.53H867.505L866.907 53.9H852.095ZM842.941 43.412L849.611 46.08L857.063 43.412H842.941ZM837.099 60.662H844.091L844.229 59.558H837.237L837.099 60.662ZM857.431 65.262L857.569 64.158H850.577L850.439 65.262H857.431ZM843.447 65.262L843.585 64.158H836.593L836.455 65.262H843.447ZM851.221 59.558L851.083 60.662H858.075L858.213 59.558H851.221ZM913.409 37.294L912.857 41.204L904.071 41.434L903.657 44.286H914.145L913.593 48.196H903.105L902.875 49.944H912.075L910.189 63.514H905.727L903.427 61.444L904.485 53.9H891.375L890.317 61.444L887.511 63.514H883.049L884.935 49.944H894.135L894.365 48.196H884.245L879.875 70.414H872.009L877.989 39.824L876.563 38.168L913.409 37.294ZM900.989 69.632L896.343 65.354L890.501 69.632H880.887L892.571 61.03L893.399 55.234H902.139L901.311 61.076L910.603 69.632H900.989ZM884.981 44.286H894.917L895.285 41.618L885.487 41.848L884.981 44.286ZM922.79 43.228L923.434 38.72L922.284 37.386H931.346L930.518 43.228H932.128L931.53 47.322H929.92L929.23 52.29L930.472 51.922L929.782 56.706L928.586 57.074L927.16 67.332C927.037 68.2213 926.623 68.9573 925.918 69.54C925.243 70.092 924.476 70.368 923.618 70.368H916.488L919.57 66.228L920.49 59.65L917.914 60.432L918.604 55.602L921.18 54.82L922.238 47.322H919.8L920.398 43.228H922.79ZM938.66 65.308L939.534 58.96H932.542L933.14 54.82H955.864L955.266 58.96H948.136L947.262 65.308H955.542L954.944 69.586H930.288L930.886 65.308H938.66ZM951.126 43.964H940.868L940.408 47.184H932.864L933.83 40.56H941.972L942.202 39.088L940.454 37.34H951.126L950.666 40.56H958.946L957.98 47.184H950.666L951.126 43.964ZM932.266 53.946L935.992 48.15H943.904L940.178 53.946H932.266ZM949.148 53.946L946.986 48.15H954.898L957.06 53.946H949.148ZM965.336 54.866H997.95L995.834 69.862H963.22L965.336 54.866ZM972.512 38.996H984.748L984.058 43.688H977.986L977.848 44.608H984.012L983.414 48.932H980.378L983.276 53.9H975.41L973.478 50.634L970.718 53.946H962.3L967.176 48.932H962.438L963.036 44.608H970.58L970.718 43.688H969.384L969.246 43.918H963.036L966.946 37.938L965.75 37.294H973.662L972.512 38.996ZM985.714 38.49H1002.27L1000.11 53.762H983.552L985.714 38.49ZM972.558 60.662H989.44L989.716 58.822H972.834L972.558 60.662ZM988.704 65.86L988.934 64.204H972.052L971.822 65.86H988.704ZM994.27 49.484L995.144 42.998H991.97L991.096 49.484H994.27ZM1036.63 54.222L1036.82 53.072H1010.69L1011.1 50.174H1045.46L1043.9 61.26H1009.31L1009.72 58.224H1036.08L1036.26 56.936H1010.87L1011.24 54.222H1036.63ZM1016.76 38.72V38.674L1015.24 37.064H1024.58L1024.35 38.72H1028.81L1028.4 41.434H1023.94L1023.8 42.4H1028.26L1027.94 44.93H1023.48L1023.34 45.896H1027.8L1027.39 48.61H1022.97L1022.83 49.53H1015.24L1015.38 48.61H1010.37L1010.78 45.896H1015.75L1015.89 44.93H1010.92L1011.24 42.4H1016.21L1016.35 41.434H1011.38L1011.79 38.72H1016.76ZM1035.57 38.72V38.674L1034.01 37.064H1043.39L1043.16 38.72H1047.58L1047.17 41.434H1042.75L1042.61 42.4H1047.03L1046.71 44.93H1042.29L1042.15 45.896H1046.57L1046.15 48.61H1041.78L1041.65 49.53H1034.06L1034.19 48.61H1029.18L1029.59 45.896H1034.56L1034.7 44.93H1029.73L1030.05 42.4H1035.02L1035.16 41.434H1030.19L1030.61 38.72H1035.57ZM1015.84 69.632L1016.85 62.41H1024.72L1024.21 66.274H1034.19L1036.08 65.124L1035.44 69.632H1015.84ZM1036.82 62.64H1043.95L1044.54 69.586H1037.41L1036.82 62.64ZM1013.22 69.586H1006.23L1008.89 62.962H1015.89L1013.22 69.586ZM1026.28 62.226H1033.64L1033.96 65.354H1026.6L1026.28 62.226ZM1082.08 38.168L1075.77 47.782H1091.69L1091.09 52.152H1082.9L1089.8 70.414H1080.19L1073.34 52.152H1072.92L1060.96 70.414H1051.35L1063.31 52.152H1055.26L1055.86 47.782H1066.16L1071.73 39.318L1070.71 38.168H1082.08ZM1102.68 70.368L1104.94 67.838L1106.18 59.098H1102.77L1100.75 70.368H1094.86L1100.34 39.64L1099.42 38.122H1115.06L1110.96 67.332C1110.84 68.1907 1110.47 68.9113 1109.86 69.494C1109.24 70.0767 1108.54 70.368 1107.74 70.368H1102.68ZM1131.29 45.942L1126.69 55.51L1128.76 64.342H1124.44L1123.52 60.662L1121.73 64.342H1117.49L1117.36 65.308H1128.76L1131.25 47.644H1136.45L1133.36 69.586H1111.47L1114.55 47.644H1119.84L1117.54 64.112L1121.82 55.556L1120.02 45.942H1124.35L1125.04 49.714L1127.02 45.942H1131.29ZM1122.97 40.698L1123.2 39.18L1121.77 37.386H1130.56L1130.1 40.698H1137.5L1136.91 45.114H1114.96L1115.56 40.698H1122.97ZM1103.56 54.728H1106.78L1107.33 50.772H1104.29L1103.56 54.728ZM1105.07 46.402H1107.97L1108.52 42.492H1105.81L1105.07 46.402ZM1181.15 41.618L1160.59 42.4L1157.1 44.746H1178.99L1178.3 49.668H1160.13L1154.15 53.486H1169.47L1169.29 51.692H1178.03L1178.76 58.73H1170.02L1169.93 57.856H1164.92L1163.58 67.378C1163.43 68.2673 1163.01 69.0033 1162.34 69.586C1161.66 70.138 1160.88 70.414 1159.99 70.414H1150.89L1154.98 66.136L1156.18 57.856H1143.94L1144.54 53.486L1150.98 49.622H1145.09L1145.78 44.838L1149.23 42.814L1144.26 42.998L1144.95 38.168L1181.8 37.248L1181.15 41.618ZM1178.21 68.758H1170.34L1167.22 60.018H1175.08L1178.21 68.758ZM1147.62 68.758H1139.75L1145.37 60.018H1153.19L1147.62 68.758ZM1223.06 47.782L1224.57 55.648H1218.46L1218.27 54.82L1200.98 55.648L1201.57 51.278L1206.04 44.286H1201.67L1202.31 39.916H1209.67L1209.81 39.042L1208.34 37.294H1218.82L1218.41 39.916H1225.91L1225.26 44.286H1214.78L1210.59 50.818L1217.44 50.496L1216.94 47.782H1223.06ZM1187.96 48.656L1193.89 39.318L1192.93 38.168H1202.54L1195.82 48.656H1201.07L1194.35 59.144H1199.6L1199 63.514H1185.89L1186.49 59.144L1190.4 53.026H1187.36L1187.96 48.656ZM1219.19 56.522L1218.09 64.388H1221.58L1223.56 62.64L1222.6 69.632H1210.36L1212.2 56.522H1219.19ZM1210.45 56.522L1205.99 69.632H1199L1203.46 56.522H1210.45ZM1198.12 69.632L1184.88 70.414L1185.52 66.136L1198.72 65.262L1198.12 69.632Z" fill="white"/>
<defs>
<radialGradient id="paint0_radial_6_18114" cx="0" cy="0" r="1" gradientUnits="userSpaceOnUse" gradientTransform="translate(988 83.0031) rotate(180) scale(911.5 103794)">
<stop stop-color="#628DD0" stop-opacity="0.16"/>
<stop offset="1"/>
</radialGradient>
<linearGradient id="paint1_linear_6_18114" x1="1328.67" y1="78.8898" x2="1328.67" y2="14.3817" gradientUnits="userSpaceOnUse">
<stop stop-color="#2362C7"/>
<stop offset="1" stop-color="#99BCF5"/>
</linearGradient>
<linearGradient id="paint2_linear_6_18114" x1="1356.25" y1="83.3339" x2="1356.25" y2="13.9998" gradientUnits="userSpaceOnUse">
<stop stop-color="#84AEF1" stop-opacity="0.01"/>
<stop offset="1" stop-color="#83ADF0"/>
</linearGradient>
<linearGradient id="paint3_linear_6_18114" x1="1232.83" y1="83.6666" x2="1232.83" y2="20.9998" gradientUnits="userSpaceOnUse">
<stop stop-color="#86B4FD" stop-opacity="0.01"/>
<stop offset="1" stop-color="#1263E6"/>
</linearGradient>
</defs>
</svg>
