<svg width="472" height="309" viewBox="0 0 472 309" fill="none" xmlns="http://www.w3.org/2000/svg">
<g clip-path="url(#clip0_103_1395)">
<circle cx="470.5" cy="32.5" r="1.5" fill="#129BFF"/>
<circle cx="1.5" cy="32.5" r="1.5" fill="#129BFF"/>
<circle cx="266.5" cy="17.5" r="1.5" fill="#129BFF"/>
<circle cx="470.5" cy="17.5" r="1.5" fill="#129BFF"/>
<line x1="1" y1="32.5" x2="470" y2="32.5" stroke="#129BFF"/>
<line x1="265" y1="17.5" x2="471" y2="17.5" stroke="#129BFF"/>
<g opacity="0.8">
<g filter="url(#filter0_f_103_1395)">
<rect x="274" y="29.8501" width="10.95" height="195.789" transform="rotate(-90 274 29.8501)" fill="#3687FF" fill-opacity="0.2"/>
</g>
<path opacity="0.6" d="M274 29.8501L274 18.9001L469.789 18.9001" stroke="#3686FF" stroke-width="0.5"/>
<rect x="319.685" y="29.8501" width="10.95" height="150.105" transform="rotate(-90 319.685 29.8501)" fill="url(#paint0_linear_103_1395)" fill-opacity="0.2"/>
<rect x="319.685" y="29.8501" width="10.95" height="62" transform="rotate(-90 319.685 29.8501)" fill="url(#paint1_linear_103_1395)" fill-opacity="0.2"/>
<rect x="381.685" y="29.8501" width="10.95" height="50.9053" transform="rotate(-90 381.685 29.8501)" fill="url(#paint2_linear_103_1395)" fill-opacity="0.2"/>
<rect x="444.337" y="29.8501" width="10.95" height="25.4526" transform="rotate(-90 444.337 29.8501)" fill="url(#paint3_linear_103_1395)" fill-opacity="0.6"/>
<rect x="432.59" y="29.8501" width="10.95" height="11.7474" transform="rotate(-90 432.59 29.8501)" fill="url(#paint4_linear_103_1395)" fill-opacity="0.3"/>
<rect x="361.453" y="29.8501" width="10.95" height="20.2316" transform="rotate(-90 361.453 29.8501)" fill="url(#paint5_linear_103_1395)" fill-opacity="0.4"/>
<g filter="url(#filter1_f_103_1395)">
<g filter="url(#filter2_f_103_1395)">
<rect x="274" y="33" width="15" height="195.789" transform="rotate(-90 274 33)" fill="#3687FF" fill-opacity="0.2"/>
</g>
<path opacity="0.6" d="M274 33L274 18L469.789 18" stroke="#3686FF" stroke-width="0.5"/>
<rect x="319.685" y="33" width="15" height="150.105" transform="rotate(-90 319.685 33)" fill="url(#paint6_linear_103_1395)" fill-opacity="0.2"/>
<rect x="319.685" y="33" width="15" height="62" transform="rotate(-90 319.685 33)" fill="url(#paint7_linear_103_1395)" fill-opacity="0.2"/>
<rect x="381.685" y="33" width="15" height="50.9053" transform="rotate(-90 381.685 33)" fill="url(#paint8_linear_103_1395)" fill-opacity="0.2"/>
<rect x="444.337" y="33" width="15" height="25.4526" transform="rotate(-90 444.337 33)" fill="url(#paint9_linear_103_1395)" fill-opacity="0.6"/>
<rect x="432.59" y="33" width="15" height="11.7474" transform="rotate(-90 432.59 33)" fill="url(#paint10_linear_103_1395)" fill-opacity="0.3"/>
<rect x="361.453" y="33" width="15" height="20.2316" transform="rotate(-90 361.453 33)" fill="url(#paint11_linear_103_1395)" fill-opacity="0.4"/>
</g>
<g opacity="0.3">
<g filter="url(#filter3_f_103_1395)">
<line x1="279.874" y1="19.25" x2="422.8" y2="19.25" stroke="#1E98DB" stroke-width="2"/>
</g>
<g filter="url(#filter4_f_103_1395)">
<line x1="302.716" y1="19.25" x2="450.863" y2="19.25" stroke="url(#paint12_radial_103_1395)" stroke-width="2"/>
</g>
</g>
<g opacity="0.2">
<g filter="url(#filter5_f_103_1395)">
<line x1="322.947" y1="26.8252" x2="415.14" y2="26.8252" stroke="#1E98DB" stroke-width="2"/>
</g>
<g filter="url(#filter6_f_103_1395)">
<line x1="337.682" y1="26.8252" x2="433.242" y2="26.8252" stroke="url(#paint13_radial_103_1395)" stroke-width="2"/>
</g>
</g>
</g>
<path d="M17.504 12.864L18.224 7.848L17.432 6.936H22.904L22.064 12.864H29.384L27.848 23.808H8.696L9.008 21.528H23.6L23.888 19.488H10.208L10.52 17.208H24.2L24.488 15.144H9.896L10.232 12.864H17.504ZM23.576 11.952L24.992 8.568L24.392 7.848H29.384L27.68 11.952H23.576ZM11.696 8.472L11.168 7.848H15.704L16.28 11.952H12.176L11.696 8.472ZM35.1181 8.256L34.3741 7.392H52.6141L50.4781 22.632C50.4141 23.096 50.1981 23.48 49.8301 23.784C49.4781 24.072 49.0781 24.216 48.6301 24.216H43.8781L46.0141 21.984L46.4461 18.792H37.6381L36.5821 24.216H32.0221L35.1181 8.256ZM38.0701 16.512H46.7821L47.0941 14.232H38.5261L38.0701 16.512ZM38.9581 11.952H47.4061L47.7421 9.672H39.4141L38.9581 11.952ZM69.7243 24.192L69.1003 12.264H62.0203L62.3563 9.936H68.9803L68.8603 7.584L68.2843 6.96H72.2923L72.4603 9.936H75.8923L75.5563 12.264H72.5803L73.1323 21.84H73.5403L74.6443 20.928L74.1643 24.192H69.7243ZM55.3003 24.12L56.6923 14.256H55.5643L55.9003 11.904H60.8203L59.6203 20.304L60.8203 19.8L60.4363 22.512L55.3003 24.12ZM68.2123 22.872L60.7243 23.712L61.0603 21.384L62.8603 21.192L63.5083 16.512H61.8763L62.1883 14.232H69.0043L68.6923 16.512H67.2283L66.6523 20.76L68.5483 20.544L68.2123 22.872ZM60.4603 7.392L61.0603 10.584H57.6763L57.1003 7.392H60.4603ZM72.8923 9.528L72.6283 7.344H75.5323L75.7723 9.528H72.8923ZM79.0824 16.68L80.9544 10.536H83.4504L82.3224 14.4H83.1624L84.6744 9.648H80.3544L80.6664 7.368H87.9624L87.6504 9.648L86.1864 14.4H87.0744L85.9224 22.608C85.8584 23.072 85.6424 23.456 85.2744 23.76C84.9224 24.048 84.5224 24.192 84.0744 24.192H79.4424L80.9784 21.888H82.6824L83.4264 16.68H79.0824ZM95.3784 12.24L94.7304 9.048H93.6264L90.9864 14.16H87.4824L90.8664 7.872L90.0984 6.984H97.5384L99.2664 14.136H95.7864L95.4984 12.792L95.3064 14.472H91.5384L91.9944 12.24H95.3784ZM99.1464 15.48L97.0344 21.576H98.4504L98.1384 23.808H86.2344L86.5464 21.576H94.0584L96.1704 15.48H99.1464ZM90.6024 15.48L90.5544 21.096H87.5784L87.6264 15.48H90.6024ZM94.3704 15.48L94.0824 21.072H91.1064L91.3944 15.48H94.3704ZM82.7064 17.808L82.3704 20.184L78.4584 20.664L78.7944 18.288L82.7064 17.808ZM123.265 7.392L122.953 9.72H118.033L117.505 10.872H122.257L121.057 19.44H118.129L117.649 18.888L118.465 13.008H113.305L112.489 18.888L111.865 19.44H108.937L110.137 10.872H113.929L114.457 9.72H109.849L110.161 7.392H123.265ZM102.793 19.872L104.161 10.08H102.841L103.177 7.848H109.609L109.273 10.08H108.001L106.777 18.792L108.553 18.312L108.169 21.12L101.041 23.04L101.425 20.232L102.793 19.872ZM117.553 13.968L116.881 18.768L116.833 18.816L120.697 24.168H116.449L114.817 21.072L112.057 24.168H107.953L113.281 18.768L113.953 13.968H117.553ZM127.343 8.304L126.551 7.392H145.703L143.399 23.808H125.159L127.343 8.304ZM130.703 16.752H139.823L140.183 14.232H131.063L130.703 16.752ZM139.151 21.528L139.487 19.032H130.367L130.031 21.528H139.151ZM131.375 11.952H140.495L140.831 9.672H131.711L131.375 11.952ZM168.501 16.512L167.469 23.808H148.317L149.349 16.512H168.501ZM163.845 15.6L163.437 14.016H155.085L154.245 15.6H149.013L152.997 8.04L152.445 7.392H167.037L169.077 15.6H163.845ZM163.221 21.528L163.605 18.792H153.573L153.189 21.528H163.221ZM156.309 11.736H162.861L162.357 9.672H157.413L156.309 11.736ZM189.211 16.464L186.715 14.568L183.283 16.464H180.283L180.595 14.16H182.275L184.507 12.888L183.499 12.12H181.003L183.019 7.56L182.347 6.96H186.907L186.379 8.088H192.667L192.187 11.52L189.379 13.08L190.795 14.16H192.523L192.211 16.464H189.211ZM191.731 16.752L190.747 23.808H179.611L180.595 16.752H191.731ZM175.171 12.12H173.083L173.419 9.84H175.483L175.795 7.68L175.219 6.984H179.227L178.819 9.84H180.907L180.571 12.12H178.507L176.803 24.216H173.467L175.171 12.12ZM171.307 23.352L173.179 12.84H174.739L172.867 23.352H171.307ZM177.859 21.984L178.723 12.84H180.283L179.419 21.984H177.859ZM187.195 21.744L187.579 19.08H184.075L183.691 21.744H187.195ZM185.539 10.128L187.171 11.4L189.403 10.128H185.539ZM204.161 8.304L204.233 7.848L203.465 6.936H208.937L208.721 8.304H215.585L215.249 10.584H207.881L206.465 11.496H209.873L209.657 13.08L205.913 15.384H207.569L207.593 14.688H210.569L210.497 16.968H200.009L200.225 15.384L203.969 13.104H200.537L200.753 11.496L202.193 10.584H197.009L197.345 8.304H204.161ZM202.769 18.336L202.865 17.664H207.425L207.329 18.336H214.841L214.529 20.616H206.993L206.489 24.216H201.929L202.433 20.616H194.945L195.257 18.336H202.769ZM214.361 13.776V16.968H211.169V13.776L211.961 11.28H215.153L214.361 13.776ZM200.105 11.28L200.225 13.776L199.313 16.968H196.121L197.033 13.776L196.913 11.28H200.105Z" fill="#75BDFF"/>
</g>
<defs>
<filter id="filter0_f_103_1395" x="254" y="-1.1001" width="235.789" height="50.9502" filterUnits="userSpaceOnUse" color-interpolation-filters="sRGB">
<feFlood flood-opacity="0" result="BackgroundImageFix"/>
<feBlend mode="normal" in="SourceGraphic" in2="BackgroundImageFix" result="shape"/>
<feGaussianBlur stdDeviation="10" result="effect1_foregroundBlur_103_1395"/>
</filter>
<filter id="filter1_f_103_1395" x="233.75" y="-22.25" width="276.04" height="95.25" filterUnits="userSpaceOnUse" color-interpolation-filters="sRGB">
<feFlood flood-opacity="0" result="BackgroundImageFix"/>
<feBlend mode="normal" in="SourceGraphic" in2="BackgroundImageFix" result="shape"/>
<feGaussianBlur stdDeviation="20" result="effect1_foregroundBlur_103_1395"/>
</filter>
<filter id="filter2_f_103_1395" x="254" y="-2" width="235.789" height="55" filterUnits="userSpaceOnUse" color-interpolation-filters="sRGB">
<feFlood flood-opacity="0" result="BackgroundImageFix"/>
<feBlend mode="normal" in="SourceGraphic" in2="BackgroundImageFix" result="shape"/>
<feGaussianBlur stdDeviation="10" result="effect1_foregroundBlur_103_1395"/>
</filter>
<filter id="filter3_f_103_1395" x="278.874" y="17.25" width="144.927" height="4" filterUnits="userSpaceOnUse" color-interpolation-filters="sRGB">
<feFlood flood-opacity="0" result="BackgroundImageFix"/>
<feBlend mode="normal" in="SourceGraphic" in2="BackgroundImageFix" result="shape"/>
<feGaussianBlur stdDeviation="0.5" result="effect1_foregroundBlur_103_1395"/>
</filter>
<filter id="filter4_f_103_1395" x="301.716" y="17.25" width="150.147" height="4" filterUnits="userSpaceOnUse" color-interpolation-filters="sRGB">
<feFlood flood-opacity="0" result="BackgroundImageFix"/>
<feBlend mode="normal" in="SourceGraphic" in2="BackgroundImageFix" result="shape"/>
<feGaussianBlur stdDeviation="0.5" result="effect1_foregroundBlur_103_1395"/>
</filter>
<filter id="filter5_f_103_1395" x="321.947" y="24.8252" width="94.1934" height="4" filterUnits="userSpaceOnUse" color-interpolation-filters="sRGB">
<feFlood flood-opacity="0" result="BackgroundImageFix"/>
<feBlend mode="normal" in="SourceGraphic" in2="BackgroundImageFix" result="shape"/>
<feGaussianBlur stdDeviation="0.5" result="effect1_foregroundBlur_103_1395"/>
</filter>
<filter id="filter6_f_103_1395" x="336.682" y="24.8252" width="97.5605" height="4" filterUnits="userSpaceOnUse" color-interpolation-filters="sRGB">
<feFlood flood-opacity="0" result="BackgroundImageFix"/>
<feBlend mode="normal" in="SourceGraphic" in2="BackgroundImageFix" result="shape"/>
<feGaussianBlur stdDeviation="0.5" result="effect1_foregroundBlur_103_1395"/>
</filter>
<linearGradient id="paint0_linear_103_1395" x1="330.635" y1="89.642" x2="319.672" y2="89.7417" gradientUnits="userSpaceOnUse">
<stop stop-color="#3687FF"/>
<stop offset="1" stop-color="#3687FF" stop-opacity="0"/>
</linearGradient>
<linearGradient id="paint1_linear_103_1395" x1="330.635" y1="54.5468" x2="319.676" y2="54.7879" gradientUnits="userSpaceOnUse">
<stop stop-color="#36FFF3"/>
<stop offset="1" stop-color="#3687FF" stop-opacity="0"/>
</linearGradient>
<linearGradient id="paint2_linear_103_1395" x1="392.635" y1="50.1274" x2="381.679" y2="50.4209" gradientUnits="userSpaceOnUse">
<stop stop-color="#3687FF"/>
<stop offset="1" stop-color="#3687FF" stop-opacity="0"/>
</linearGradient>
<linearGradient id="paint3_linear_103_1395" x1="455.287" y1="39.9887" x2="444.355" y2="40.5746" gradientUnits="userSpaceOnUse">
<stop stop-color="#AB46FB"/>
<stop offset="1" stop-color="#FA94D0" stop-opacity="0"/>
</linearGradient>
<linearGradient id="paint4_linear_103_1395" x1="443.54" y1="34.5295" x2="432.722" y2="35.7855" gradientUnits="userSpaceOnUse">
<stop stop-color="#FF83CD"/>
<stop offset="1" stop-color="#FA94D0" stop-opacity="0"/>
</linearGradient>
<linearGradient id="paint5_linear_103_1395" x1="372.403" y1="37.909" x2="361.489" y2="38.6448" gradientUnits="userSpaceOnUse">
<stop stop-color="#36FFF3"/>
<stop offset="1" stop-color="#3687FF" stop-opacity="0"/>
</linearGradient>
<linearGradient id="paint6_linear_103_1395" x1="334.685" y1="92.7919" x2="319.668" y2="92.9789" gradientUnits="userSpaceOnUse">
<stop stop-color="#3687FF"/>
<stop offset="1" stop-color="#3687FF" stop-opacity="0"/>
</linearGradient>
<linearGradient id="paint7_linear_103_1395" x1="334.685" y1="57.6967" x2="319.68" y2="58.1489" gradientUnits="userSpaceOnUse">
<stop stop-color="#36FFF3"/>
<stop offset="1" stop-color="#3687FF" stop-opacity="0"/>
</linearGradient>
<linearGradient id="paint8_linear_103_1395" x1="396.685" y1="53.2773" x2="381.686" y2="53.8278" gradientUnits="userSpaceOnUse">
<stop stop-color="#3687FF"/>
<stop offset="1" stop-color="#3687FF" stop-opacity="0"/>
</linearGradient>
<linearGradient id="paint9_linear_103_1395" x1="459.337" y1="43.1386" x2="444.399" y2="44.2353" gradientUnits="userSpaceOnUse">
<stop stop-color="#AB46FB"/>
<stop offset="1" stop-color="#FA94D0" stop-opacity="0"/>
</linearGradient>
<linearGradient id="paint10_linear_103_1395" x1="447.59" y1="37.6794" x2="432.942" y2="40.0093" gradientUnits="userSpaceOnUse">
<stop stop-color="#FF83CD"/>
<stop offset="1" stop-color="#FA94D0" stop-opacity="0"/>
</linearGradient>
<linearGradient id="paint11_linear_103_1395" x1="376.453" y1="41.0589" x2="361.561" y2="42.4343" gradientUnits="userSpaceOnUse">
<stop stop-color="#36FFF3"/>
<stop offset="1" stop-color="#3687FF" stop-opacity="0"/>
</linearGradient>
<radialGradient id="paint12_radial_103_1395" cx="0" cy="0" r="1" gradientUnits="userSpaceOnUse" gradientTransform="translate(376.79 20.75) rotate(-179.427) scale(50.0022 540.714)">
<stop stop-color="#D5F0FF"/>
<stop offset="1" stop-color="#1E98DB" stop-opacity="0"/>
</radialGradient>
<radialGradient id="paint13_radial_103_1395" cx="0" cy="0" r="1" gradientUnits="userSpaceOnUse" gradientTransform="translate(385.462 28.3252) rotate(-179.112) scale(32.2556 540.676)">
<stop stop-color="#D5F0FF"/>
<stop offset="1" stop-color="#1E98DB" stop-opacity="0"/>
</radialGradient>
<clipPath id="clip0_103_1395">
<rect width="472" height="309" fill="white"/>
</clipPath>
</defs>
</svg>
