<svg width="472" height="194" viewBox="0 0 472 194" fill="none" xmlns="http://www.w3.org/2000/svg">
<g clip-path="url(#clip0_103_1219)">
<circle cx="470.5" cy="32.5" r="1.5" fill="#129BFF"/>
<circle cx="1.5" cy="32.5" r="1.5" fill="#129BFF"/>
<circle cx="266.5" cy="17.5" r="1.5" fill="#129BFF"/>
<circle cx="470.5" cy="17.5" r="1.5" fill="#129BFF"/>
<line x1="1" y1="32.5" x2="470" y2="32.5" stroke="#129BFF"/>
<line x1="265" y1="17.5" x2="471" y2="17.5" stroke="#129BFF"/>
<g opacity="0.8">
<g filter="url(#filter0_f_103_1219)">
<rect x="274" y="29.8501" width="10.95" height="195.789" transform="rotate(-90 274 29.8501)" fill="#3687FF" fill-opacity="0.2"/>
</g>
<path opacity="0.6" d="M274 29.8501L274 18.9001L469.789 18.9001" stroke="#3686FF" stroke-width="0.5"/>
<rect x="319.685" y="29.8501" width="10.95" height="150.105" transform="rotate(-90 319.685 29.8501)" fill="url(#paint0_linear_103_1219)" fill-opacity="0.2"/>
<rect x="319.685" y="29.8501" width="10.95" height="62" transform="rotate(-90 319.685 29.8501)" fill="url(#paint1_linear_103_1219)" fill-opacity="0.2"/>
<rect x="381.685" y="29.8501" width="10.95" height="50.9053" transform="rotate(-90 381.685 29.8501)" fill="url(#paint2_linear_103_1219)" fill-opacity="0.2"/>
<rect x="444.337" y="29.8501" width="10.95" height="25.4526" transform="rotate(-90 444.337 29.8501)" fill="url(#paint3_linear_103_1219)" fill-opacity="0.6"/>
<rect x="432.59" y="29.8501" width="10.95" height="11.7474" transform="rotate(-90 432.59 29.8501)" fill="url(#paint4_linear_103_1219)" fill-opacity="0.3"/>
<rect x="361.453" y="29.8501" width="10.95" height="20.2316" transform="rotate(-90 361.453 29.8501)" fill="url(#paint5_linear_103_1219)" fill-opacity="0.4"/>
<g filter="url(#filter1_f_103_1219)">
<g filter="url(#filter2_f_103_1219)">
<rect x="274" y="33" width="15" height="195.789" transform="rotate(-90 274 33)" fill="#3687FF" fill-opacity="0.2"/>
</g>
<path opacity="0.6" d="M274 33L274 18L469.789 18" stroke="#3686FF" stroke-width="0.5"/>
<rect x="319.685" y="33" width="15" height="150.105" transform="rotate(-90 319.685 33)" fill="url(#paint6_linear_103_1219)" fill-opacity="0.2"/>
<rect x="319.685" y="33" width="15" height="62" transform="rotate(-90 319.685 33)" fill="url(#paint7_linear_103_1219)" fill-opacity="0.2"/>
<rect x="381.685" y="33" width="15" height="50.9053" transform="rotate(-90 381.685 33)" fill="url(#paint8_linear_103_1219)" fill-opacity="0.2"/>
<rect x="444.337" y="33" width="15" height="25.4526" transform="rotate(-90 444.337 33)" fill="url(#paint9_linear_103_1219)" fill-opacity="0.6"/>
<rect x="432.59" y="33" width="15" height="11.7474" transform="rotate(-90 432.59 33)" fill="url(#paint10_linear_103_1219)" fill-opacity="0.3"/>
<rect x="361.453" y="33" width="15" height="20.2316" transform="rotate(-90 361.453 33)" fill="url(#paint11_linear_103_1219)" fill-opacity="0.4"/>
</g>
<g opacity="0.3">
<g filter="url(#filter3_f_103_1219)">
<line x1="279.874" y1="19.25" x2="422.8" y2="19.25" stroke="#1E98DB" stroke-width="2"/>
</g>
<g filter="url(#filter4_f_103_1219)">
<line x1="302.716" y1="19.25" x2="450.863" y2="19.25" stroke="url(#paint12_radial_103_1219)" stroke-width="2"/>
</g>
</g>
<g opacity="0.2">
<g filter="url(#filter5_f_103_1219)">
<line x1="322.947" y1="26.8252" x2="415.14" y2="26.8252" stroke="#1E98DB" stroke-width="2"/>
</g>
<g filter="url(#filter6_f_103_1219)">
<line x1="337.682" y1="26.8252" x2="433.242" y2="26.8252" stroke="url(#paint13_radial_103_1219)" stroke-width="2"/>
</g>
</g>
</g>
<path d="M17.504 12.864L18.224 7.848L17.432 6.936H22.904L22.064 12.864H29.384L27.848 23.808H8.696L9.008 21.528H23.6L23.888 19.488H10.208L10.52 17.208H24.2L24.488 15.144H9.896L10.232 12.864H17.504ZM23.576 11.952L24.992 8.568L24.392 7.848H29.384L27.68 11.952H23.576ZM11.696 8.472L11.168 7.848H15.704L16.28 11.952H12.176L11.696 8.472ZM35.1181 8.256L34.3741 7.392H52.6141L50.4781 22.632C50.4141 23.096 50.1981 23.48 49.8301 23.784C49.4781 24.072 49.0781 24.216 48.6301 24.216H43.8781L46.0141 21.984L46.4461 18.792H37.6381L36.5821 24.216H32.0221L35.1181 8.256ZM38.0701 16.512H46.7821L47.0941 14.232H38.5261L38.0701 16.512ZM38.9581 11.952H47.4061L47.7421 9.672H39.4141L38.9581 11.952ZM75.3883 16.512L74.3563 23.808H55.2043L56.2363 16.512H75.3883ZM70.7323 15.6L70.3243 14.016H61.9723L61.1323 15.6H55.9003L59.8843 8.04L59.3323 7.392H73.9243L75.9643 15.6H70.7323ZM70.1083 21.528L70.4923 18.792H60.4603L60.0763 21.528H70.1083ZM63.1963 11.736H69.7483L69.2443 9.672H64.3003L63.1963 11.736ZM96.0984 16.464L93.6024 14.568L90.1704 16.464H87.1704L87.4824 14.16H89.1624L91.3944 12.888L90.3864 12.12H87.8904L89.9064 7.56L89.2344 6.96H93.7944L93.2664 8.088H99.5544L99.0744 11.52L96.2664 13.08L97.6824 14.16H99.4104L99.0984 16.464H96.0984ZM98.6184 16.752L97.6344 23.808H86.4984L87.4824 16.752H98.6184ZM82.0584 12.12H79.9704L80.3064 9.84H82.3704L82.6824 7.68L82.1064 6.984H86.1144L85.7064 9.84H87.7944L87.4584 12.12H85.3944L83.6904 24.216H80.3544L82.0584 12.12ZM78.1944 23.352L80.0664 12.84H81.6264L79.7544 23.352H78.1944ZM84.7464 21.984L85.6104 12.84H87.1704L86.3064 21.984H84.7464ZM94.0824 21.744L94.4664 19.08H90.9624L90.5784 21.744H94.0824ZM92.4264 10.128L94.0584 11.4L96.2904 10.128H92.4264ZM111.049 8.304L111.121 7.848L110.353 6.936H115.825L115.609 8.304H122.473L122.137 10.584H114.769L113.353 11.496H116.761L116.545 13.08L112.801 15.384H114.457L114.481 14.688H117.457L117.385 16.968H106.897L107.113 15.384L110.857 13.104H107.425L107.641 11.496L109.081 10.584H103.897L104.233 8.304H111.049ZM109.657 18.336L109.753 17.664H114.313L114.217 18.336H121.729L121.417 20.616H113.881L113.377 24.216H108.817L109.321 20.616H101.833L102.145 18.336H109.657ZM121.249 13.776V16.968H118.057V13.776L118.849 11.28H122.041L121.249 13.776ZM106.993 11.28L107.113 13.776L106.201 16.968H103.009L103.921 13.776L103.801 11.28H106.993Z" fill="#75BDFF"/>
<circle r="1.5" transform="matrix(1 0 0 -1 470.5 189.5)" fill="#129BFF"/>
<circle r="1.5" transform="matrix(1 0 0 -1 1.5 189.5)" fill="#129BFF"/>
<line y1="-0.5" x2="469" y2="-0.5" transform="matrix(1 0 0 -1 1 189)" stroke="#129BFF"/>
</g>
<defs>
<filter id="filter0_f_103_1219" x="254" y="-1.1001" width="235.789" height="50.9502" filterUnits="userSpaceOnUse" color-interpolation-filters="sRGB">
<feFlood flood-opacity="0" result="BackgroundImageFix"/>
<feBlend mode="normal" in="SourceGraphic" in2="BackgroundImageFix" result="shape"/>
<feGaussianBlur stdDeviation="10" result="effect1_foregroundBlur_103_1219"/>
</filter>
<filter id="filter1_f_103_1219" x="233.75" y="-22.25" width="276.04" height="95.25" filterUnits="userSpaceOnUse" color-interpolation-filters="sRGB">
<feFlood flood-opacity="0" result="BackgroundImageFix"/>
<feBlend mode="normal" in="SourceGraphic" in2="BackgroundImageFix" result="shape"/>
<feGaussianBlur stdDeviation="20" result="effect1_foregroundBlur_103_1219"/>
</filter>
<filter id="filter2_f_103_1219" x="254" y="-2" width="235.789" height="55" filterUnits="userSpaceOnUse" color-interpolation-filters="sRGB">
<feFlood flood-opacity="0" result="BackgroundImageFix"/>
<feBlend mode="normal" in="SourceGraphic" in2="BackgroundImageFix" result="shape"/>
<feGaussianBlur stdDeviation="10" result="effect1_foregroundBlur_103_1219"/>
</filter>
<filter id="filter3_f_103_1219" x="278.874" y="17.25" width="144.927" height="4" filterUnits="userSpaceOnUse" color-interpolation-filters="sRGB">
<feFlood flood-opacity="0" result="BackgroundImageFix"/>
<feBlend mode="normal" in="SourceGraphic" in2="BackgroundImageFix" result="shape"/>
<feGaussianBlur stdDeviation="0.5" result="effect1_foregroundBlur_103_1219"/>
</filter>
<filter id="filter4_f_103_1219" x="301.716" y="17.25" width="150.147" height="4" filterUnits="userSpaceOnUse" color-interpolation-filters="sRGB">
<feFlood flood-opacity="0" result="BackgroundImageFix"/>
<feBlend mode="normal" in="SourceGraphic" in2="BackgroundImageFix" result="shape"/>
<feGaussianBlur stdDeviation="0.5" result="effect1_foregroundBlur_103_1219"/>
</filter>
<filter id="filter5_f_103_1219" x="321.947" y="24.8252" width="94.1934" height="4" filterUnits="userSpaceOnUse" color-interpolation-filters="sRGB">
<feFlood flood-opacity="0" result="BackgroundImageFix"/>
<feBlend mode="normal" in="SourceGraphic" in2="BackgroundImageFix" result="shape"/>
<feGaussianBlur stdDeviation="0.5" result="effect1_foregroundBlur_103_1219"/>
</filter>
<filter id="filter6_f_103_1219" x="336.682" y="24.8252" width="97.5605" height="4" filterUnits="userSpaceOnUse" color-interpolation-filters="sRGB">
<feFlood flood-opacity="0" result="BackgroundImageFix"/>
<feBlend mode="normal" in="SourceGraphic" in2="BackgroundImageFix" result="shape"/>
<feGaussianBlur stdDeviation="0.5" result="effect1_foregroundBlur_103_1219"/>
</filter>
<linearGradient id="paint0_linear_103_1219" x1="330.635" y1="89.642" x2="319.672" y2="89.7417" gradientUnits="userSpaceOnUse">
<stop stop-color="#3687FF"/>
<stop offset="1" stop-color="#3687FF" stop-opacity="0"/>
</linearGradient>
<linearGradient id="paint1_linear_103_1219" x1="330.635" y1="54.5468" x2="319.676" y2="54.7879" gradientUnits="userSpaceOnUse">
<stop stop-color="#36FFF3"/>
<stop offset="1" stop-color="#3687FF" stop-opacity="0"/>
</linearGradient>
<linearGradient id="paint2_linear_103_1219" x1="392.635" y1="50.1274" x2="381.679" y2="50.4209" gradientUnits="userSpaceOnUse">
<stop stop-color="#3687FF"/>
<stop offset="1" stop-color="#3687FF" stop-opacity="0"/>
</linearGradient>
<linearGradient id="paint3_linear_103_1219" x1="455.287" y1="39.9887" x2="444.355" y2="40.5746" gradientUnits="userSpaceOnUse">
<stop stop-color="#AB46FB"/>
<stop offset="1" stop-color="#FA94D0" stop-opacity="0"/>
</linearGradient>
<linearGradient id="paint4_linear_103_1219" x1="443.54" y1="34.5295" x2="432.722" y2="35.7855" gradientUnits="userSpaceOnUse">
<stop stop-color="#FF83CD"/>
<stop offset="1" stop-color="#FA94D0" stop-opacity="0"/>
</linearGradient>
<linearGradient id="paint5_linear_103_1219" x1="372.403" y1="37.909" x2="361.489" y2="38.6448" gradientUnits="userSpaceOnUse">
<stop stop-color="#36FFF3"/>
<stop offset="1" stop-color="#3687FF" stop-opacity="0"/>
</linearGradient>
<linearGradient id="paint6_linear_103_1219" x1="334.685" y1="92.7919" x2="319.668" y2="92.9789" gradientUnits="userSpaceOnUse">
<stop stop-color="#3687FF"/>
<stop offset="1" stop-color="#3687FF" stop-opacity="0"/>
</linearGradient>
<linearGradient id="paint7_linear_103_1219" x1="334.685" y1="57.6967" x2="319.68" y2="58.1489" gradientUnits="userSpaceOnUse">
<stop stop-color="#36FFF3"/>
<stop offset="1" stop-color="#3687FF" stop-opacity="0"/>
</linearGradient>
<linearGradient id="paint8_linear_103_1219" x1="396.685" y1="53.2773" x2="381.686" y2="53.8278" gradientUnits="userSpaceOnUse">
<stop stop-color="#3687FF"/>
<stop offset="1" stop-color="#3687FF" stop-opacity="0"/>
</linearGradient>
<linearGradient id="paint9_linear_103_1219" x1="459.337" y1="43.1386" x2="444.399" y2="44.2353" gradientUnits="userSpaceOnUse">
<stop stop-color="#AB46FB"/>
<stop offset="1" stop-color="#FA94D0" stop-opacity="0"/>
</linearGradient>
<linearGradient id="paint10_linear_103_1219" x1="447.59" y1="37.6794" x2="432.942" y2="40.0093" gradientUnits="userSpaceOnUse">
<stop stop-color="#FF83CD"/>
<stop offset="1" stop-color="#FA94D0" stop-opacity="0"/>
</linearGradient>
<linearGradient id="paint11_linear_103_1219" x1="376.453" y1="41.0589" x2="361.561" y2="42.4343" gradientUnits="userSpaceOnUse">
<stop stop-color="#36FFF3"/>
<stop offset="1" stop-color="#3687FF" stop-opacity="0"/>
</linearGradient>
<radialGradient id="paint12_radial_103_1219" cx="0" cy="0" r="1" gradientUnits="userSpaceOnUse" gradientTransform="translate(376.79 20.75) rotate(-179.427) scale(50.0022 540.714)">
<stop stop-color="#D5F0FF"/>
<stop offset="1" stop-color="#1E98DB" stop-opacity="0"/>
</radialGradient>
<radialGradient id="paint13_radial_103_1219" cx="0" cy="0" r="1" gradientUnits="userSpaceOnUse" gradientTransform="translate(385.462 28.3252) rotate(-179.112) scale(32.2556 540.676)">
<stop stop-color="#D5F0FF"/>
<stop offset="1" stop-color="#1E98DB" stop-opacity="0"/>
</radialGradient>
<clipPath id="clip0_103_1219">
<rect width="472" height="194" fill="white"/>
</clipPath>
</defs>
</svg>
