<svg width="472" height="334" viewBox="0 0 472 334" fill="none" xmlns="http://www.w3.org/2000/svg">
<g clip-path="url(#clip0_103_1296)">
<circle cx="470.5" cy="32.5" r="1.5" fill="#129BFF"/>
<circle cx="1.5" cy="32.5" r="1.5" fill="#129BFF"/>
<circle cx="266.5" cy="17.5" r="1.5" fill="#129BFF"/>
<circle cx="470.5" cy="17.5" r="1.5" fill="#129BFF"/>
<line x1="1" y1="32.5" x2="470" y2="32.5" stroke="#129BFF"/>
<line x1="265" y1="17.5" x2="471" y2="17.5" stroke="#129BFF"/>
<g opacity="0.8">
<g filter="url(#filter0_f_103_1296)">
<rect x="274" y="29.8501" width="10.95" height="195.789" transform="rotate(-90 274 29.8501)" fill="#3687FF" fill-opacity="0.2"/>
</g>
<path opacity="0.6" d="M274 29.8501L274 18.9001L469.789 18.9001" stroke="#3686FF" stroke-width="0.5"/>
<rect x="319.685" y="29.8501" width="10.95" height="150.105" transform="rotate(-90 319.685 29.8501)" fill="url(#paint0_linear_103_1296)" fill-opacity="0.2"/>
<rect x="319.685" y="29.8501" width="10.95" height="62" transform="rotate(-90 319.685 29.8501)" fill="url(#paint1_linear_103_1296)" fill-opacity="0.2"/>
<rect x="381.685" y="29.8501" width="10.95" height="50.9053" transform="rotate(-90 381.685 29.8501)" fill="url(#paint2_linear_103_1296)" fill-opacity="0.2"/>
<rect x="444.337" y="29.8501" width="10.95" height="25.4526" transform="rotate(-90 444.337 29.8501)" fill="url(#paint3_linear_103_1296)" fill-opacity="0.6"/>
<rect x="432.59" y="29.8501" width="10.95" height="11.7474" transform="rotate(-90 432.59 29.8501)" fill="url(#paint4_linear_103_1296)" fill-opacity="0.3"/>
<rect x="361.453" y="29.8501" width="10.95" height="20.2316" transform="rotate(-90 361.453 29.8501)" fill="url(#paint5_linear_103_1296)" fill-opacity="0.4"/>
<g filter="url(#filter1_f_103_1296)">
<g filter="url(#filter2_f_103_1296)">
<rect x="274" y="33" width="15" height="195.789" transform="rotate(-90 274 33)" fill="#3687FF" fill-opacity="0.2"/>
</g>
<path opacity="0.6" d="M274 33L274 18L469.789 18" stroke="#3686FF" stroke-width="0.5"/>
<rect x="319.685" y="33" width="15" height="150.105" transform="rotate(-90 319.685 33)" fill="url(#paint6_linear_103_1296)" fill-opacity="0.2"/>
<rect x="319.685" y="33" width="15" height="62" transform="rotate(-90 319.685 33)" fill="url(#paint7_linear_103_1296)" fill-opacity="0.2"/>
<rect x="381.685" y="33" width="15" height="50.9053" transform="rotate(-90 381.685 33)" fill="url(#paint8_linear_103_1296)" fill-opacity="0.2"/>
<rect x="444.337" y="33" width="15" height="25.4526" transform="rotate(-90 444.337 33)" fill="url(#paint9_linear_103_1296)" fill-opacity="0.6"/>
<rect x="432.59" y="33" width="15" height="11.7474" transform="rotate(-90 432.59 33)" fill="url(#paint10_linear_103_1296)" fill-opacity="0.3"/>
<rect x="361.453" y="33" width="15" height="20.2316" transform="rotate(-90 361.453 33)" fill="url(#paint11_linear_103_1296)" fill-opacity="0.4"/>
</g>
<g opacity="0.3">
<g filter="url(#filter3_f_103_1296)">
<line x1="279.874" y1="19.25" x2="422.8" y2="19.25" stroke="#1E98DB" stroke-width="2"/>
</g>
<g filter="url(#filter4_f_103_1296)">
<line x1="302.716" y1="19.25" x2="450.863" y2="19.25" stroke="url(#paint12_radial_103_1296)" stroke-width="2"/>
</g>
</g>
<g opacity="0.2">
<g filter="url(#filter5_f_103_1296)">
<line x1="322.947" y1="26.8252" x2="415.14" y2="26.8252" stroke="#1E98DB" stroke-width="2"/>
</g>
<g filter="url(#filter6_f_103_1296)">
<line x1="337.682" y1="26.8252" x2="433.242" y2="26.8252" stroke="url(#paint13_radial_103_1296)" stroke-width="2"/>
</g>
</g>
</g>
<path d="M17.072 6.936L16.544 7.848H29.24L28.928 10.128H15.248L14.864 10.8H28.376L27.8 14.928H29.168L28.88 16.968H27.512L27.224 19.008H28.112L27.776 21.312H26.888L26.72 22.632C26.64 23.096 26.424 23.48 26.072 23.784C25.72 24.072 25.312 24.216 24.848 24.216H15.536L17.696 21.984H23.168L23.264 21.312H10.88L11.48 16.968H8.816L9.104 14.928H11.768L12.008 13.32H9.32L12.608 7.584L12.056 6.936H17.072ZM16.208 12.864L15.92 14.928H17.96L17.72 13.56H21.824L22.064 14.928H24.152L24.44 12.864H16.208ZM21.728 17.64L21.992 19.008H23.576L23.864 16.968H15.632L15.344 19.008H17.888L17.624 17.64H21.728ZM35.1181 8.256L34.3741 7.392H52.6141L50.4781 22.632C50.4141 23.096 50.1981 23.48 49.8301 23.784C49.4781 24.072 49.0781 24.216 48.6301 24.216H43.8781L46.0141 21.984L46.4461 18.792H37.6381L36.5821 24.216H32.0221L35.1181 8.256ZM38.0701 16.512H46.7821L47.0941 14.232H38.5261L38.0701 16.512ZM38.9581 11.952H47.4061L47.7421 9.672H39.4141L38.9581 11.952ZM72.7723 14.304L72.5803 13.44L72.4603 14.664H67.6603L67.8283 13.536L67.4203 14.328H64.1323L67.5403 7.824L66.7723 6.936H74.2843L76.1323 14.304H72.7723ZM58.8523 12.144H56.7883L57.1243 9.864H59.1643L59.4763 7.68L58.9243 6.984H62.8123L62.4043 9.864H64.4203L64.0843 12.144H62.0923L60.3883 24.216H57.1483L58.8523 12.144ZM75.6523 15.336L73.5163 21.6H75.1963L74.8843 23.832H62.8843L63.1963 21.6H70.7803L72.8923 15.336H75.6523ZM67.2763 15.336L67.2283 21.048H64.4683L64.5163 15.336H67.2763ZM55.0603 23.352L56.9323 12.936H58.4443L56.5723 23.352H55.0603ZM70.8763 15.336L70.5883 21.024H67.8523L68.1163 15.336H70.8763ZM61.4203 21.984L62.3083 12.936H63.8203L62.9563 21.984H61.4203ZM68.3323 12.48H72.3883L71.6923 9H70.0843L68.3323 12.48ZM89.4264 18L90.5784 9.432H87.2184L85.9944 17.664L84.9144 19.296H83.1144L84.8184 7.416H93.4104L91.7784 19.224H90.0744L89.4264 18ZM100.082 7.272L97.9464 22.536C97.8824 22.984 97.6744 23.368 97.3224 23.688C96.9704 23.992 96.5704 24.144 96.1224 24.144H92.7864L94.8744 21.888L96.8424 7.944L96.2424 7.272H100.082ZM89.8824 10.608L88.8504 17.904L91.6824 24.144H88.3464L87.3384 21.096L85.7304 24.144H82.2984L86.4744 17.76L87.5784 10.608H89.8824ZM96.1704 8.328L94.5144 20.088H92.2584L93.9144 8.328H96.1704ZM77.6904 24.144L79.6824 17.424H82.8744L80.9064 24.144H77.6904ZM79.9224 16.512L79.8024 12.408H82.9464L83.0664 16.512H79.9224ZM80.6424 11.496L80.5224 7.392H83.6664L83.7864 11.496H80.6424ZM116.665 21.528L114.817 24.216H107.065L106.465 23.664L105.697 24.216H101.137L104.425 21.816L102.625 20.16L102.937 17.88H102.049L102.361 15.6H103.249L103.369 14.832H106.561L106.441 15.6H108.721L108.841 14.832H112.033L111.913 15.6H112.849L112.537 17.88H111.601L111.289 20.16L109.009 21.816L111.337 23.976L115.129 18.456L113.041 14.232H116.689L117.265 15.384L118.057 14.232V14.208L118.489 11.04H117.625L116.809 13.32H113.161L115.225 7.488L114.769 6.936H119.089L118.441 8.76H123.145L122.833 11.04H122.137L121.705 14.208L118.777 18.456L121.657 24.216H118.009L116.665 21.528ZM104.233 11.952H102.865L103.201 9.672H106.849L107.113 7.824L106.705 6.936H110.425L110.041 9.672H113.689L113.353 11.952H111.865L112.969 14.688H110.233L109.561 13.032L109.321 14.688H106.129L106.393 12.864L105.217 14.688H102.481L104.233 11.952ZM111.265 7.392H114.001L113.281 9.216H110.545L111.265 7.392ZM106.441 9.216H103.705L103.513 7.392H106.249L106.441 9.216ZM108.265 19.032L108.409 17.88H106.129L105.985 19.032L106.993 19.968L108.265 19.032ZM132.887 20.16L132.935 19.704H126.119L126.815 14.688H145.055L144.359 19.704H137.495L137.447 20.16H144.743L144.551 21.528H137.255L137.183 21.984H144.935L144.695 23.784H124.631L124.871 21.984H132.623L132.695 21.528H125.399L125.591 20.16H132.887ZM145.391 12.408H127.151L127.847 7.368H146.087L145.391 12.408ZM146.231 12.864L146.039 14.232H125.975L126.167 12.864H146.231ZM131.231 9.216H142.175L142.247 8.736H131.303L131.231 9.216ZM141.935 11.04L141.983 10.584H131.039L130.991 11.04H141.935ZM137.999 16.056L137.951 16.512H141.143L141.215 16.056H137.999ZM140.903 18.336L140.951 17.88H137.759L137.687 18.336H140.903ZM133.127 18.336L133.199 17.88H130.007L129.959 18.336H133.127ZM130.199 16.512H133.391L133.439 16.056H130.271L130.199 16.512Z" fill="#75BDFF"/>
</g>
<defs>
<filter id="filter0_f_103_1296" x="254" y="-1.1001" width="235.789" height="50.9502" filterUnits="userSpaceOnUse" color-interpolation-filters="sRGB">
<feFlood flood-opacity="0" result="BackgroundImageFix"/>
<feBlend mode="normal" in="SourceGraphic" in2="BackgroundImageFix" result="shape"/>
<feGaussianBlur stdDeviation="10" result="effect1_foregroundBlur_103_1296"/>
</filter>
<filter id="filter1_f_103_1296" x="233.75" y="-22.25" width="276.04" height="95.25" filterUnits="userSpaceOnUse" color-interpolation-filters="sRGB">
<feFlood flood-opacity="0" result="BackgroundImageFix"/>
<feBlend mode="normal" in="SourceGraphic" in2="BackgroundImageFix" result="shape"/>
<feGaussianBlur stdDeviation="20" result="effect1_foregroundBlur_103_1296"/>
</filter>
<filter id="filter2_f_103_1296" x="254" y="-2" width="235.789" height="55" filterUnits="userSpaceOnUse" color-interpolation-filters="sRGB">
<feFlood flood-opacity="0" result="BackgroundImageFix"/>
<feBlend mode="normal" in="SourceGraphic" in2="BackgroundImageFix" result="shape"/>
<feGaussianBlur stdDeviation="10" result="effect1_foregroundBlur_103_1296"/>
</filter>
<filter id="filter3_f_103_1296" x="278.874" y="17.25" width="144.927" height="4" filterUnits="userSpaceOnUse" color-interpolation-filters="sRGB">
<feFlood flood-opacity="0" result="BackgroundImageFix"/>
<feBlend mode="normal" in="SourceGraphic" in2="BackgroundImageFix" result="shape"/>
<feGaussianBlur stdDeviation="0.5" result="effect1_foregroundBlur_103_1296"/>
</filter>
<filter id="filter4_f_103_1296" x="301.716" y="17.25" width="150.147" height="4" filterUnits="userSpaceOnUse" color-interpolation-filters="sRGB">
<feFlood flood-opacity="0" result="BackgroundImageFix"/>
<feBlend mode="normal" in="SourceGraphic" in2="BackgroundImageFix" result="shape"/>
<feGaussianBlur stdDeviation="0.5" result="effect1_foregroundBlur_103_1296"/>
</filter>
<filter id="filter5_f_103_1296" x="321.947" y="24.8252" width="94.1934" height="4" filterUnits="userSpaceOnUse" color-interpolation-filters="sRGB">
<feFlood flood-opacity="0" result="BackgroundImageFix"/>
<feBlend mode="normal" in="SourceGraphic" in2="BackgroundImageFix" result="shape"/>
<feGaussianBlur stdDeviation="0.5" result="effect1_foregroundBlur_103_1296"/>
</filter>
<filter id="filter6_f_103_1296" x="336.682" y="24.8252" width="97.5605" height="4" filterUnits="userSpaceOnUse" color-interpolation-filters="sRGB">
<feFlood flood-opacity="0" result="BackgroundImageFix"/>
<feBlend mode="normal" in="SourceGraphic" in2="BackgroundImageFix" result="shape"/>
<feGaussianBlur stdDeviation="0.5" result="effect1_foregroundBlur_103_1296"/>
</filter>
<linearGradient id="paint0_linear_103_1296" x1="330.635" y1="89.642" x2="319.672" y2="89.7417" gradientUnits="userSpaceOnUse">
<stop stop-color="#3687FF"/>
<stop offset="1" stop-color="#3687FF" stop-opacity="0"/>
</linearGradient>
<linearGradient id="paint1_linear_103_1296" x1="330.635" y1="54.5468" x2="319.676" y2="54.7879" gradientUnits="userSpaceOnUse">
<stop stop-color="#36FFF3"/>
<stop offset="1" stop-color="#3687FF" stop-opacity="0"/>
</linearGradient>
<linearGradient id="paint2_linear_103_1296" x1="392.635" y1="50.1274" x2="381.679" y2="50.4209" gradientUnits="userSpaceOnUse">
<stop stop-color="#3687FF"/>
<stop offset="1" stop-color="#3687FF" stop-opacity="0"/>
</linearGradient>
<linearGradient id="paint3_linear_103_1296" x1="455.287" y1="39.9887" x2="444.355" y2="40.5746" gradientUnits="userSpaceOnUse">
<stop stop-color="#AB46FB"/>
<stop offset="1" stop-color="#FA94D0" stop-opacity="0"/>
</linearGradient>
<linearGradient id="paint4_linear_103_1296" x1="443.54" y1="34.5295" x2="432.722" y2="35.7855" gradientUnits="userSpaceOnUse">
<stop stop-color="#FF83CD"/>
<stop offset="1" stop-color="#FA94D0" stop-opacity="0"/>
</linearGradient>
<linearGradient id="paint5_linear_103_1296" x1="372.403" y1="37.909" x2="361.489" y2="38.6448" gradientUnits="userSpaceOnUse">
<stop stop-color="#36FFF3"/>
<stop offset="1" stop-color="#3687FF" stop-opacity="0"/>
</linearGradient>
<linearGradient id="paint6_linear_103_1296" x1="334.685" y1="92.7919" x2="319.668" y2="92.9789" gradientUnits="userSpaceOnUse">
<stop stop-color="#3687FF"/>
<stop offset="1" stop-color="#3687FF" stop-opacity="0"/>
</linearGradient>
<linearGradient id="paint7_linear_103_1296" x1="334.685" y1="57.6967" x2="319.68" y2="58.1489" gradientUnits="userSpaceOnUse">
<stop stop-color="#36FFF3"/>
<stop offset="1" stop-color="#3687FF" stop-opacity="0"/>
</linearGradient>
<linearGradient id="paint8_linear_103_1296" x1="396.685" y1="53.2773" x2="381.686" y2="53.8278" gradientUnits="userSpaceOnUse">
<stop stop-color="#3687FF"/>
<stop offset="1" stop-color="#3687FF" stop-opacity="0"/>
</linearGradient>
<linearGradient id="paint9_linear_103_1296" x1="459.337" y1="43.1386" x2="444.399" y2="44.2353" gradientUnits="userSpaceOnUse">
<stop stop-color="#AB46FB"/>
<stop offset="1" stop-color="#FA94D0" stop-opacity="0"/>
</linearGradient>
<linearGradient id="paint10_linear_103_1296" x1="447.59" y1="37.6794" x2="432.942" y2="40.0093" gradientUnits="userSpaceOnUse">
<stop stop-color="#FF83CD"/>
<stop offset="1" stop-color="#FA94D0" stop-opacity="0"/>
</linearGradient>
<linearGradient id="paint11_linear_103_1296" x1="376.453" y1="41.0589" x2="361.561" y2="42.4343" gradientUnits="userSpaceOnUse">
<stop stop-color="#36FFF3"/>
<stop offset="1" stop-color="#3687FF" stop-opacity="0"/>
</linearGradient>
<radialGradient id="paint12_radial_103_1296" cx="0" cy="0" r="1" gradientUnits="userSpaceOnUse" gradientTransform="translate(376.79 20.75) rotate(-179.427) scale(50.0022 540.714)">
<stop stop-color="#D5F0FF"/>
<stop offset="1" stop-color="#1E98DB" stop-opacity="0"/>
</radialGradient>
<radialGradient id="paint13_radial_103_1296" cx="0" cy="0" r="1" gradientUnits="userSpaceOnUse" gradientTransform="translate(385.462 28.3252) rotate(-179.112) scale(32.2556 540.676)">
<stop stop-color="#D5F0FF"/>
<stop offset="1" stop-color="#1E98DB" stop-opacity="0"/>
</radialGradient>
<clipPath id="clip0_103_1296">
<rect width="472" height="334" fill="white"/>
</clipPath>
</defs>
</svg>
