<svg width="218" height="73" viewBox="0 0 218 73" fill="none" xmlns="http://www.w3.org/2000/svg">
<path d="M0 8C0 3.58172 3.58172 0 8 0H210C214.418 0 218 3.58172 218 8V65C218 69.4183 214.418 73 210 73H8C3.58173 73 0 69.4183 0 65V8Z" fill="#19213D" fill-opacity="0.4"/>
<g filter="url(#filter0_d_136_1688)">
<path d="M16 24.5C16 20.0817 19.5817 16.5 24 16.5H48C52.4183 16.5 56 20.0817 56 24.5V48.5C56 52.9183 52.4183 56.5 48 56.5H24C19.5817 56.5 16 52.9183 16 48.5V24.5Z" fill="#2276FC"/>
<path d="M27.5381 43.6152C27.5381 43.509 27.6242 43.4229 27.7304 43.4229H44.2689C44.3751 43.4229 44.4612 43.509 44.4612 43.6152C44.4612 43.7214 44.3751 43.8075 44.2689 43.8075H27.7304C27.6242 43.8075 27.5381 43.7214 27.5381 43.6152Z" fill="white"/>
<path d="M29.0762 35.3462C29.0762 34.709 29.5928 34.1924 30.23 34.1924C30.8673 34.1924 31.3839 34.709 31.3839 35.3462V40.7308C31.3839 41.3681 30.8673 41.8847 30.23 41.8847C29.5928 41.8847 29.0762 41.3681 29.0762 40.7308V35.3462Z" fill="white"/>
<path d="M36.7695 33.0386C36.7695 32.4014 37.2861 31.8848 37.9234 31.8848C38.5606 31.8848 39.0772 32.4014 39.0772 33.0386V40.7309C39.0772 41.3682 38.5606 41.8848 37.9234 41.8848C37.2861 41.8848 36.7695 41.3682 36.7695 40.7309V33.0386Z" fill="white"/>
<path d="M35.2305 40.7305C35.2305 41.3678 34.7139 41.8844 34.0767 41.8844C33.4394 41.8844 32.9229 41.3678 32.9229 40.7305L32.9229 30.7305C32.9229 30.0933 33.4394 29.5767 34.0767 29.5767C34.714 29.5767 35.2305 30.0933 35.2305 30.7305L35.2305 40.7305Z" fill="white"/>
<path d="M42.9239 40.7306C42.9239 41.3678 42.4073 41.8844 41.7701 41.8844C41.1328 41.8844 40.6162 41.3678 40.6162 40.7306L40.6162 38.4229C40.6162 37.7856 41.1328 37.269 41.7701 37.269C42.4073 37.269 42.9239 37.7856 42.9239 38.4229L42.9239 40.7306Z" fill="white"/>
</g>
<path d="M8 1H210V-1H8V1ZM217 8V65H219V8H217ZM210 72H8V74H210V72ZM1 65V8H-1V65H1ZM8 72C4.13401 72 1 68.866 1 65H-1C-1 69.9706 3.02944 74 8 74V72ZM217 65C217 68.866 213.866 72 210 72V74C214.971 74 219 69.9706 219 65H217ZM210 1C213.866 1 217 4.13401 217 8H219C219 3.02944 214.971 -1 210 -1V1ZM8 -1C3.02944 -1 -1 3.02944 -1 8H1C1 4.13401 4.13401 1 8 1V-1Z" fill="#BAD0F1" fill-opacity="0.1"/>
<defs>
<filter id="filter0_d_136_1688" x="8" y="12.5" width="56" height="56" filterUnits="userSpaceOnUse" color-interpolation-filters="sRGB">
<feFlood flood-opacity="0" result="BackgroundImageFix"/>
<feColorMatrix in="SourceAlpha" type="matrix" values="0 0 0 0 0 0 0 0 0 0 0 0 0 0 0 0 0 0 127 0" result="hardAlpha"/>
<feOffset dy="4"/>
<feGaussianBlur stdDeviation="4"/>
<feColorMatrix type="matrix" values="0 0 0 0 0.211765 0 0 0 0 0.45098 0 0 0 0 0.909804 0 0 0 0.2 0"/>
<feBlend mode="normal" in2="BackgroundImageFix" result="effect1_dropShadow_136_1688"/>
<feBlend mode="normal" in="SourceGraphic" in2="effect1_dropShadow_136_1688" result="shape"/>
</filter>
</defs>
</svg>
