<svg width="472" height="342" viewBox="0 0 472 342" fill="none" xmlns="http://www.w3.org/2000/svg">
<g clip-path="url(#clip0_103_1586)">
<circle cx="470.5" cy="32.5" r="1.5" fill="#129BFF"/>
<circle cx="1.5" cy="32.5" r="1.5" fill="#129BFF"/>
<circle cx="266.5" cy="17.5" r="1.5" fill="#129BFF"/>
<circle cx="470.5" cy="17.5" r="1.5" fill="#129BFF"/>
<line x1="1" y1="32.5" x2="470" y2="32.5" stroke="#129BFF"/>
<line x1="265" y1="17.5" x2="471" y2="17.5" stroke="#129BFF"/>
<g opacity="0.8">
<g filter="url(#filter0_f_103_1586)">
<rect x="274" y="29.8501" width="10.95" height="195.789" transform="rotate(-90 274 29.8501)" fill="#3687FF" fill-opacity="0.2"/>
</g>
<path opacity="0.6" d="M274 29.8501L274 18.9001L469.789 18.9001" stroke="#3686FF" stroke-width="0.5"/>
<rect x="319.685" y="29.8501" width="10.95" height="150.105" transform="rotate(-90 319.685 29.8501)" fill="url(#paint0_linear_103_1586)" fill-opacity="0.2"/>
<rect x="319.685" y="29.8501" width="10.95" height="62" transform="rotate(-90 319.685 29.8501)" fill="url(#paint1_linear_103_1586)" fill-opacity="0.2"/>
<rect x="381.685" y="29.8501" width="10.95" height="50.9053" transform="rotate(-90 381.685 29.8501)" fill="url(#paint2_linear_103_1586)" fill-opacity="0.2"/>
<rect x="444.337" y="29.8501" width="10.95" height="25.4526" transform="rotate(-90 444.337 29.8501)" fill="url(#paint3_linear_103_1586)" fill-opacity="0.6"/>
<rect x="432.59" y="29.8501" width="10.95" height="11.7474" transform="rotate(-90 432.59 29.8501)" fill="url(#paint4_linear_103_1586)" fill-opacity="0.3"/>
<rect x="361.453" y="29.8501" width="10.95" height="20.2316" transform="rotate(-90 361.453 29.8501)" fill="url(#paint5_linear_103_1586)" fill-opacity="0.4"/>
<g filter="url(#filter1_f_103_1586)">
<g filter="url(#filter2_f_103_1586)">
<rect x="274" y="33" width="15" height="195.789" transform="rotate(-90 274 33)" fill="#3687FF" fill-opacity="0.2"/>
</g>
<path opacity="0.6" d="M274 33L274 18L469.789 18" stroke="#3686FF" stroke-width="0.5"/>
<rect x="319.685" y="33" width="15" height="150.105" transform="rotate(-90 319.685 33)" fill="url(#paint6_linear_103_1586)" fill-opacity="0.2"/>
<rect x="319.685" y="33" width="15" height="62" transform="rotate(-90 319.685 33)" fill="url(#paint7_linear_103_1586)" fill-opacity="0.2"/>
<rect x="381.685" y="33" width="15" height="50.9053" transform="rotate(-90 381.685 33)" fill="url(#paint8_linear_103_1586)" fill-opacity="0.2"/>
<rect x="444.337" y="33" width="15" height="25.4526" transform="rotate(-90 444.337 33)" fill="url(#paint9_linear_103_1586)" fill-opacity="0.6"/>
<rect x="432.59" y="33" width="15" height="11.7474" transform="rotate(-90 432.59 33)" fill="url(#paint10_linear_103_1586)" fill-opacity="0.3"/>
<rect x="361.453" y="33" width="15" height="20.2316" transform="rotate(-90 361.453 33)" fill="url(#paint11_linear_103_1586)" fill-opacity="0.4"/>
</g>
<g opacity="0.3">
<g filter="url(#filter3_f_103_1586)">
<line x1="279.874" y1="19.25" x2="422.8" y2="19.25" stroke="#1E98DB" stroke-width="2"/>
</g>
<g filter="url(#filter4_f_103_1586)">
<line x1="302.716" y1="19.25" x2="450.863" y2="19.25" stroke="url(#paint12_radial_103_1586)" stroke-width="2"/>
</g>
</g>
<g opacity="0.2">
<g filter="url(#filter5_f_103_1586)">
<line x1="322.947" y1="26.8252" x2="415.14" y2="26.8252" stroke="#1E98DB" stroke-width="2"/>
</g>
<g filter="url(#filter6_f_103_1586)">
<line x1="337.682" y1="26.8252" x2="433.242" y2="26.8252" stroke="url(#paint13_radial_103_1586)" stroke-width="2"/>
</g>
</g>
</g>
<path d="M17.504 12.864L18.224 7.848L17.432 6.936H22.904L22.064 12.864H29.384L27.848 23.808H8.696L9.008 21.528H23.6L23.888 19.488H10.208L10.52 17.208H24.2L24.488 15.144H9.896L10.232 12.864H17.504ZM23.576 11.952L24.992 8.568L24.392 7.848H29.384L27.68 11.952H23.576ZM11.696 8.472L11.168 7.848H15.704L16.28 11.952H12.176L11.696 8.472ZM35.1181 8.256L34.3741 7.392H52.6141L50.4781 22.632C50.4141 23.096 50.1981 23.48 49.8301 23.784C49.4781 24.072 49.0781 24.216 48.6301 24.216H43.8781L46.0141 21.984L46.4461 18.792H37.6381L36.5821 24.216H32.0221L35.1181 8.256ZM38.0701 16.512H46.7821L47.0941 14.232H38.5261L38.0701 16.512ZM38.9581 11.952H47.4061L47.7421 9.672H39.4141L38.9581 11.952ZM66.2203 9.216H75.8923L75.5803 11.496H64.6603L62.0443 15.36L60.8683 23.808H56.3083L57.1243 17.88H55.3003L59.6683 11.496H56.9083L57.2203 9.216H61.2283L62.3803 7.536L61.8523 6.936H67.7803L66.2203 9.216ZM66.8683 15.144L67.2523 12.408H71.8123L71.4283 15.144H74.8363L74.5243 17.424H71.1163L70.5403 21.528H74.4043L74.0923 23.808H61.7803L62.0923 21.528H65.9803L66.5563 17.424H63.1243L63.4363 15.144H66.8683ZM90.1704 14.184L90.3144 13.176H89.3544L89.5464 11.664L88.4904 12.984H84.6744L89.4504 7.44L88.9224 6.96H96.5304L99.6744 12.984H95.9784L95.3544 11.856L95.1864 13.176H94.2264L94.0824 14.184H98.5224L98.2104 16.368H93.7704L93.3384 19.416C93.2744 19.88 93.0664 20.272 92.7144 20.592C92.3624 20.896 91.9544 21.048 91.4904 21.048H87.8664L89.4984 19.008L89.8584 16.368H85.0344L85.3464 14.184H90.1704ZM78.0744 23.808L79.3224 21.432L80.4504 13.32H79.5384L79.8504 11.04H84.7704L83.4504 20.544L86.8344 21.528H97.9944L97.6824 23.808H84.9144L82.5384 23.112L82.1784 23.808H78.0744ZM88.7784 16.824L87.0264 20.592H84.0984L85.8504 16.824H88.7784ZM97.2024 16.824L97.6104 20.592H94.8504L94.4664 16.824H97.2024ZM84.0264 7.392L85.0104 10.128H81.3624L80.3784 7.392H84.0264ZM90.0264 11.088H94.9464L93.7464 8.856H91.8504L90.0264 11.088ZM118.561 14.016H121.801L121.489 16.296H107.737L105.553 24.216H101.209L104.017 14.016H106.777L106.657 11.496H110.305L110.425 14.016H114.913L115.777 11.496H119.425L118.561 14.016ZM111.193 8.304L111.265 7.848L110.497 6.936H115.969L115.777 8.304H123.073L122.737 10.584H103.585L103.921 8.304H111.193ZM129.743 8.304L128.951 7.392H144.455L143.423 14.688H128.831L129.743 8.304ZM139.199 12.408L139.583 9.672H134.111L133.727 12.408H139.199ZM145.583 15.6L144.431 23.808H135.311L136.463 15.6H145.583ZM139.799 17.88L139.271 21.528H141.095L141.623 17.88H139.799ZM135.551 15.6L134.399 23.808H125.279L126.431 15.6H135.551ZM129.767 17.88L129.239 21.528H131.063L131.591 17.88H129.767ZM157.797 15.144L158.277 12.408H156.621L156.933 10.128H158.661L158.997 8.28L158.229 7.392H162.789L162.309 10.128H163.773L164.157 7.392H167.805L167.421 10.128H168.789L168.477 12.408H167.109L166.725 15.144H168.549L168.213 17.424H166.389L165.957 20.616H162.309L162.741 17.424H161.037L160.485 20.616H156.837L157.389 17.424H155.445L155.781 15.144H157.797ZM148.629 23.808L149.853 21.528L151.005 13.32H150.093L150.429 11.04H155.445L154.101 20.544L157.389 21.528H168.549L168.237 23.808H155.469L153.117 23.112L152.733 23.808H148.629ZM154.581 7.392L155.565 10.128H151.917L150.933 7.392H154.581ZM161.421 15.144H163.077L163.461 12.408H161.901L161.421 15.144ZM181.939 8.304L182.011 7.848L181.243 6.936H186.715L186.523 8.304H192.907L192.571 10.584H177.859L175.147 24.216H171.043L174.043 9.168L173.299 8.304H181.939ZM180.619 21.504L177.235 19.248L177.283 18.792L177.571 16.752H191.251L190.915 19.248L186.859 21.504L191.107 24.216H184.723L183.475 23.4L181.987 24.216H175.603L180.619 21.504ZM191.611 11.04L191.515 11.712H192.427L192.163 13.536H191.251L190.891 16.056H178.123L178.483 13.536H177.571L177.835 11.712H178.747L178.843 11.04H183.403L183.307 11.712H186.955L187.051 11.04H191.611ZM186.595 14.232L186.691 13.536H183.043L182.947 14.232H186.595ZM182.611 18.792L184.003 19.68L185.635 18.792H182.611Z" fill="#75BDFF"/>
</g>
<defs>
<filter id="filter0_f_103_1586" x="254" y="-1.1001" width="235.789" height="50.9502" filterUnits="userSpaceOnUse" color-interpolation-filters="sRGB">
<feFlood flood-opacity="0" result="BackgroundImageFix"/>
<feBlend mode="normal" in="SourceGraphic" in2="BackgroundImageFix" result="shape"/>
<feGaussianBlur stdDeviation="10" result="effect1_foregroundBlur_103_1586"/>
</filter>
<filter id="filter1_f_103_1586" x="233.75" y="-22.25" width="276.04" height="95.25" filterUnits="userSpaceOnUse" color-interpolation-filters="sRGB">
<feFlood flood-opacity="0" result="BackgroundImageFix"/>
<feBlend mode="normal" in="SourceGraphic" in2="BackgroundImageFix" result="shape"/>
<feGaussianBlur stdDeviation="20" result="effect1_foregroundBlur_103_1586"/>
</filter>
<filter id="filter2_f_103_1586" x="254" y="-2" width="235.789" height="55" filterUnits="userSpaceOnUse" color-interpolation-filters="sRGB">
<feFlood flood-opacity="0" result="BackgroundImageFix"/>
<feBlend mode="normal" in="SourceGraphic" in2="BackgroundImageFix" result="shape"/>
<feGaussianBlur stdDeviation="10" result="effect1_foregroundBlur_103_1586"/>
</filter>
<filter id="filter3_f_103_1586" x="278.874" y="17.25" width="144.927" height="4" filterUnits="userSpaceOnUse" color-interpolation-filters="sRGB">
<feFlood flood-opacity="0" result="BackgroundImageFix"/>
<feBlend mode="normal" in="SourceGraphic" in2="BackgroundImageFix" result="shape"/>
<feGaussianBlur stdDeviation="0.5" result="effect1_foregroundBlur_103_1586"/>
</filter>
<filter id="filter4_f_103_1586" x="301.716" y="17.25" width="150.147" height="4" filterUnits="userSpaceOnUse" color-interpolation-filters="sRGB">
<feFlood flood-opacity="0" result="BackgroundImageFix"/>
<feBlend mode="normal" in="SourceGraphic" in2="BackgroundImageFix" result="shape"/>
<feGaussianBlur stdDeviation="0.5" result="effect1_foregroundBlur_103_1586"/>
</filter>
<filter id="filter5_f_103_1586" x="321.947" y="24.8252" width="94.1934" height="4" filterUnits="userSpaceOnUse" color-interpolation-filters="sRGB">
<feFlood flood-opacity="0" result="BackgroundImageFix"/>
<feBlend mode="normal" in="SourceGraphic" in2="BackgroundImageFix" result="shape"/>
<feGaussianBlur stdDeviation="0.5" result="effect1_foregroundBlur_103_1586"/>
</filter>
<filter id="filter6_f_103_1586" x="336.682" y="24.8252" width="97.5605" height="4" filterUnits="userSpaceOnUse" color-interpolation-filters="sRGB">
<feFlood flood-opacity="0" result="BackgroundImageFix"/>
<feBlend mode="normal" in="SourceGraphic" in2="BackgroundImageFix" result="shape"/>
<feGaussianBlur stdDeviation="0.5" result="effect1_foregroundBlur_103_1586"/>
</filter>
<linearGradient id="paint0_linear_103_1586" x1="330.635" y1="89.642" x2="319.672" y2="89.7417" gradientUnits="userSpaceOnUse">
<stop stop-color="#3687FF"/>
<stop offset="1" stop-color="#3687FF" stop-opacity="0"/>
</linearGradient>
<linearGradient id="paint1_linear_103_1586" x1="330.635" y1="54.5468" x2="319.676" y2="54.7879" gradientUnits="userSpaceOnUse">
<stop stop-color="#36FFF3"/>
<stop offset="1" stop-color="#3687FF" stop-opacity="0"/>
</linearGradient>
<linearGradient id="paint2_linear_103_1586" x1="392.635" y1="50.1274" x2="381.679" y2="50.4209" gradientUnits="userSpaceOnUse">
<stop stop-color="#3687FF"/>
<stop offset="1" stop-color="#3687FF" stop-opacity="0"/>
</linearGradient>
<linearGradient id="paint3_linear_103_1586" x1="455.287" y1="39.9887" x2="444.355" y2="40.5746" gradientUnits="userSpaceOnUse">
<stop stop-color="#AB46FB"/>
<stop offset="1" stop-color="#FA94D0" stop-opacity="0"/>
</linearGradient>
<linearGradient id="paint4_linear_103_1586" x1="443.54" y1="34.5295" x2="432.722" y2="35.7855" gradientUnits="userSpaceOnUse">
<stop stop-color="#FF83CD"/>
<stop offset="1" stop-color="#FA94D0" stop-opacity="0"/>
</linearGradient>
<linearGradient id="paint5_linear_103_1586" x1="372.403" y1="37.909" x2="361.489" y2="38.6448" gradientUnits="userSpaceOnUse">
<stop stop-color="#36FFF3"/>
<stop offset="1" stop-color="#3687FF" stop-opacity="0"/>
</linearGradient>
<linearGradient id="paint6_linear_103_1586" x1="334.685" y1="92.7919" x2="319.668" y2="92.9789" gradientUnits="userSpaceOnUse">
<stop stop-color="#3687FF"/>
<stop offset="1" stop-color="#3687FF" stop-opacity="0"/>
</linearGradient>
<linearGradient id="paint7_linear_103_1586" x1="334.685" y1="57.6967" x2="319.68" y2="58.1489" gradientUnits="userSpaceOnUse">
<stop stop-color="#36FFF3"/>
<stop offset="1" stop-color="#3687FF" stop-opacity="0"/>
</linearGradient>
<linearGradient id="paint8_linear_103_1586" x1="396.685" y1="53.2773" x2="381.686" y2="53.8278" gradientUnits="userSpaceOnUse">
<stop stop-color="#3687FF"/>
<stop offset="1" stop-color="#3687FF" stop-opacity="0"/>
</linearGradient>
<linearGradient id="paint9_linear_103_1586" x1="459.337" y1="43.1386" x2="444.399" y2="44.2353" gradientUnits="userSpaceOnUse">
<stop stop-color="#AB46FB"/>
<stop offset="1" stop-color="#FA94D0" stop-opacity="0"/>
</linearGradient>
<linearGradient id="paint10_linear_103_1586" x1="447.59" y1="37.6794" x2="432.942" y2="40.0093" gradientUnits="userSpaceOnUse">
<stop stop-color="#FF83CD"/>
<stop offset="1" stop-color="#FA94D0" stop-opacity="0"/>
</linearGradient>
<linearGradient id="paint11_linear_103_1586" x1="376.453" y1="41.0589" x2="361.561" y2="42.4343" gradientUnits="userSpaceOnUse">
<stop stop-color="#36FFF3"/>
<stop offset="1" stop-color="#3687FF" stop-opacity="0"/>
</linearGradient>
<radialGradient id="paint12_radial_103_1586" cx="0" cy="0" r="1" gradientUnits="userSpaceOnUse" gradientTransform="translate(376.79 20.75) rotate(-179.427) scale(50.0022 540.714)">
<stop stop-color="#D5F0FF"/>
<stop offset="1" stop-color="#1E98DB" stop-opacity="0"/>
</radialGradient>
<radialGradient id="paint13_radial_103_1586" cx="0" cy="0" r="1" gradientUnits="userSpaceOnUse" gradientTransform="translate(385.462 28.3252) rotate(-179.112) scale(32.2556 540.676)">
<stop stop-color="#D5F0FF"/>
<stop offset="1" stop-color="#1E98DB" stop-opacity="0"/>
</radialGradient>
<clipPath id="clip0_103_1586">
<rect width="472" height="342" fill="white"/>
</clipPath>
</defs>
</svg>
