<svg width="36" height="36" viewBox="0 0 36 36" fill="#fff" xmlns="http://www.w3.org/2000/svg">
<path d="M17.9984 7.10464L28.3593 10.9218V25.0782L17.9984 28.8953L7.63742 25.0782V10.9218L17.9984 7.10464ZM17.9984 6.32666L6.91034 10.4274V25.5871L17.9984 29.6733L29.0864 25.5871V10.4274L17.9984 6.32666Z" />
<path d="M26.1926 15.8006L19.5325 17.9309V23.3113H16.4642V17.9309L9.80414 15.8006V12.5796L17.9984 15.1971L26.1926 12.5796V15.8006Z" />
<path d="M17.9984 4.77798L30.5697 9.4095V26.5905L17.9984 31.222L5.4271 26.5905V9.4095L17.9984 4.77798ZM17.9984 4L4.70001 8.90055V27.0776L17.9984 32L31.2967 27.0995V8.92236L17.9984 4Z" />
</svg>
